{"title":"Systema -  Vladimir Vasiliev - Knife Fighting And Throwing","uid":5613523,"size":735668973,"categoryP":"video","categoryS":"movies","magnet":"?xt=urn:btih:9b4be8967ad252f972f268c7987f8671e32a21f2&amp;dn=Systema+-++Vladimir+Vasiliev+-+Knife+Fighting+And+Throwing&amp;tr=udp%3A%2F%2Ftracker.openbittorrent.com%3A80&amp;tr=udp%3A%2F%2Fopen.demonii.com%3A1337&amp;tr=udp%3A%2F%2Ftracker.coppersurfer.tk%3A6969&amp;tr=udp%3A%2F%2Fexodus.desync.com%3A6969","seeders":19,"leechers":0,"uploader":"billya181","files":-1,"time":1275980729,"description":"Systema - Russian Martial Art\n\nKnife fighting &amp; throwing techniques for Spetznaz (Russian Special Forces).\n\nGeneral\nComplete name                    : Russian_Martial_Art_Vladimir_Vasiliev_Systema_Knife_Fighting_and_Throwing.divx\nFormat                           : DivX\nFormat/Info                      : Hack of AVI\nFile size                        : 702 MiB\nDuration                         : 1h 12mn\nOverall bit rate                 : 1 353 Kbps\n\nVideo\nID                               : 0\nFormat                           : MPEG-4 Visual\nFormat settings, BVOP            : Yes\nFormat settings, QPel            : No\nFormat settings, GMC             : No warppoints\nFormat settings, Matrix          : Default (H.263)\nMuxing mode                      : Packed bitstream\nCodec ID                         : DX50\nCodec ID/Hint                    : DivX 5\nDuration                         : 1h 12mn\nBit rate                         : 1 214 Kbps\nWidth                            : 640 pixels\nHeight                           : 480 pixels\nDisplay aspect ratio             : 4:3\nFrame rate                       : 29.970 fps\nColor space                      : YUV\nChroma subsampling               : 4:2:0\nBit depth                        : 8 bits\nScan type                        : Progressive\nBits/(Pixel*Frame)               : 0.132\nStream size                      : 629 MiB (90%)\nTitle                            : Main\nWriting library                  : DivX 6.8.2 (UTC 2008-05-17)\n\nAudio\nID                               : 1\nFormat                           : MPEG Audio\nFormat version                   : Version 1\nFormat profile                   : Layer 3\nMode                             : Joint stereo\nMode extension                   : MS Stereo\nCodec ID                         : 55\nCodec ID/Hint                    : MP3\nDuration                         : 1h 12mn\nBit rate mode                    : Constant\nBit rate                         : 128 Kbps\nChannel(s)                       : 2 channels\nSampling rate                    : 48.0 KHz\nStream size                      : 66.4 MiB (9%)\nAlignment                        : Split accross interleaves\nInterleave, duration             : 33 ms (1.00 video frame)\nInterleave, preload duration     : 500 ms\nTitle                            : Audio \nWriting library                  : LAME3.97 (beta)","torrent":{"xt":"urn:btih:9b4be8967ad252f972f268c7987f8671e32a21f2","amp;dn":"Systema+-++Vladimir+Vasiliev+-+Knife+Fighting+And+Throwing","amp;tr":["udp%3A%2F%2Ftracker.openbittorrent.com%3A80","udp%3A%2F%2Fopen.demonii.com%3A1337","udp%3A%2F%2Ftracker.coppersurfer.tk%3A6969","udp%3A%2F%2Fexodus.desync.com%3A6969"],"infoHash":"9b4be8967ad252f972f268c7987f8671e32a21f2","infoHashBuffer":{"type":"Buffer","data":[155,75,232,150,122,210,82,249,114,242,104,199,152,127,134,113,227,42,33,242]},"announce":[],"urlList":[]}}